<svg width="916" height="532" viewBox="0 0 916 532" fill="none" xmlns="http://www.w3.org/2000/svg">
<g filter="url(#filter0_d_1_3862)">
<path d="M36 24C36 17.3726 41.3726 12 48 12H824C830.627 12 836 17.3726 836 24V460C836 466.627 830.627 472 824 472H48C41.3726 472 36 466.627 36 460V24Z" fill="white"/>
<path d="M48 12.5H824C830.351 12.5 835.5 17.6487 835.5 24V460C835.5 466.351 830.351 471.5 824 471.5H48C41.6487 471.5 36.5 466.351 36.5 460V24C36.5 17.6487 41.6487 12.5 48 12.5Z" stroke="#EAECF0"/>
<path d="M77.5433 51.9091H79.9148V60.4616C79.9148 61.3991 79.6932 62.2237 79.25 62.9354C78.8111 63.647 78.1932 64.2031 77.3963 64.6037C76.5994 65 75.6683 65.1982 74.603 65.1982C73.5334 65.1982 72.6001 65 71.8033 64.6037C71.0064 64.2031 70.3885 63.647 69.9496 62.9354C69.5107 62.2237 69.2912 61.3991 69.2912 60.4616V51.9091H71.6626V60.2635C71.6626 60.8089 71.782 61.2947 72.0206 61.7209C72.2635 62.147 72.6044 62.4815 73.0433 62.7244C73.4822 62.9631 74.0021 63.0824 74.603 63.0824C75.2038 63.0824 75.7237 62.9631 76.1626 62.7244C76.6058 62.4815 76.9467 62.147 77.1854 61.7209C77.424 61.2947 77.5433 60.8089 77.5433 60.2635V51.9091ZM90.15 57.777L88.0407 58.0071C87.981 57.794 87.8766 57.5938 87.7275 57.4062C87.5826 57.2188 87.3865 57.0675 87.1394 56.9524C86.8922 56.8374 86.5897 56.7798 86.2317 56.7798C85.7502 56.7798 85.3453 56.8842 85.0172 57.093C84.6934 57.3018 84.5336 57.5724 84.5378 57.9048C84.5336 58.1903 84.638 58.4226 84.851 58.6016C85.0684 58.7805 85.4263 58.9276 85.9249 59.0426L87.5996 59.4006C88.5286 59.6009 89.2189 59.9183 89.6706 60.353C90.1266 60.7876 90.3567 61.3565 90.361 62.0597C90.3567 62.6776 90.1756 63.223 89.8176 63.696C89.464 64.1648 88.9718 64.5312 88.3411 64.7955C87.7104 65.0597 86.986 65.1918 86.1678 65.1918C84.9661 65.1918 83.9988 64.9403 83.2658 64.4375C82.5328 63.9304 82.0961 63.2251 81.9554 62.3217L84.2118 62.1044C84.3141 62.5476 84.5314 62.8821 84.8638 63.108C85.1962 63.3338 85.6287 63.4467 86.1614 63.4467C86.7111 63.4467 87.1522 63.3338 87.4846 63.108C87.8212 62.8821 87.9895 62.603 87.9895 62.2706C87.9895 61.9893 87.8809 61.7571 87.6635 61.5739C87.4505 61.3906 87.1181 61.25 86.6664 61.152L84.9917 60.8004C84.0499 60.6044 83.3532 60.2741 82.9015 59.8097C82.4498 59.3409 82.226 58.7486 82.2303 58.0327C82.226 57.4276 82.3901 56.9034 82.7225 56.4602C83.0591 56.0128 83.5257 55.6676 84.1223 55.4247C84.7232 55.1776 85.4157 55.054 86.1998 55.054C87.3503 55.054 88.2559 55.299 88.9164 55.7891C89.5811 56.2791 89.9924 56.9418 90.15 57.777ZM96.6156 65.1918C95.6312 65.1918 94.7811 64.9872 94.0652 64.5781C93.3535 64.1648 92.8059 63.581 92.4224 62.8267C92.0389 62.0682 91.8471 61.1754 91.8471 60.1484C91.8471 59.1385 92.0389 58.2521 92.4224 57.4893C92.8102 56.7223 93.3514 56.1257 94.046 55.6996C94.7406 55.2692 95.5566 55.054 96.4941 55.054C97.0993 55.054 97.6703 55.152 98.2072 55.348C98.7484 55.5398 99.2257 55.8381 99.639 56.2429C100.057 56.6477 100.385 57.1634 100.623 57.7898C100.862 58.4119 100.981 59.1534 100.981 60.0142V60.7237H92.9338V59.1641H98.7633C98.7591 58.7209 98.6632 58.3267 98.4757 57.9815C98.2882 57.6321 98.0261 57.3572 97.6895 57.157C97.3571 56.9567 96.9693 56.8565 96.5261 56.8565C96.0531 56.8565 95.6376 56.9716 95.2797 57.2017C94.9217 57.4276 94.6426 57.7259 94.4423 58.0966C94.2463 58.4631 94.1461 58.8658 94.1419 59.3047V60.6662C94.1419 61.2372 94.2463 61.7273 94.4551 62.1364C94.6639 62.5412 94.9558 62.8523 95.3308 63.0696C95.7058 63.2827 96.1447 63.3892 96.6476 63.3892C96.9842 63.3892 97.2889 63.3423 97.5616 63.2486C97.8343 63.1506 98.0708 63.0078 98.2711 62.8203C98.4714 62.6328 98.6227 62.4006 98.725 62.1236L100.885 62.3665C100.749 62.9375 100.489 63.4361 100.106 63.8622C99.7264 64.2841 99.2406 64.6122 98.6483 64.8466C98.0559 65.0767 97.3784 65.1918 96.6156 65.1918ZM102.939 65V55.1818H105.183V56.8182H105.285C105.464 56.2514 105.771 55.8146 106.205 55.5078C106.644 55.1967 107.145 55.0412 107.707 55.0412C107.835 55.0412 107.978 55.0476 108.136 55.0604C108.298 55.0689 108.432 55.0838 108.538 55.1051V57.2337C108.44 57.1996 108.285 57.1697 108.072 57.1442C107.863 57.1143 107.661 57.0994 107.464 57.0994C107.043 57.0994 106.663 57.1911 106.327 57.3743C105.994 57.5533 105.732 57.8026 105.54 58.1222C105.349 58.4418 105.253 58.8104 105.253 59.228V65H102.939ZM117.836 57.777L115.726 58.0071C115.667 57.794 115.562 57.5938 115.413 57.4062C115.268 57.2188 115.072 57.0675 114.825 56.9524C114.578 56.8374 114.275 56.7798 113.917 56.7798C113.436 56.7798 113.031 56.8842 112.703 57.093C112.379 57.3018 112.219 57.5724 112.223 57.9048C112.219 58.1903 112.324 58.4226 112.537 58.6016C112.754 58.7805 113.112 58.9276 113.61 59.0426L115.285 59.4006C116.214 59.6009 116.904 59.9183 117.356 60.353C117.812 60.7876 118.042 61.3565 118.047 62.0597C118.042 62.6776 117.861 63.223 117.503 63.696C117.15 64.1648 116.657 64.5312 116.027 64.7955C115.396 65.0597 114.672 65.1918 113.853 65.1918C112.652 65.1918 111.684 64.9403 110.951 64.4375C110.218 63.9304 109.782 63.2251 109.641 62.3217L111.897 62.1044C112 62.5476 112.217 62.8821 112.549 63.108C112.882 63.3338 113.314 63.4467 113.847 63.4467C114.397 63.4467 114.838 63.3338 115.17 63.108C115.507 62.8821 115.675 62.603 115.675 62.2706C115.675 61.9893 115.566 61.7571 115.349 61.5739C115.136 61.3906 114.804 61.25 114.352 61.152L112.677 60.8004C111.735 60.6044 111.039 60.2741 110.587 59.8097C110.135 59.3409 109.912 58.7486 109.916 58.0327C109.912 57.4276 110.076 56.9034 110.408 56.4602C110.745 56.0128 111.211 55.6676 111.808 55.4247C112.409 55.1776 113.101 55.054 113.885 55.054C115.036 55.054 115.941 55.299 116.602 55.7891C117.267 56.2791 117.678 56.9418 117.836 57.777ZM128.702 65.1918C127.743 65.1918 126.912 64.9808 126.209 64.5589C125.506 64.1371 124.961 63.5469 124.573 62.7884C124.189 62.0298 123.998 61.1435 123.998 60.1293C123.998 59.1151 124.189 58.2266 124.573 57.4638C124.961 56.701 125.506 56.1087 126.209 55.6868C126.912 55.2649 127.743 55.054 128.702 55.054C129.661 55.054 130.492 55.2649 131.195 55.6868C131.898 56.1087 132.441 56.701 132.825 57.4638C133.213 58.2266 133.407 59.1151 133.407 60.1293C133.407 61.1435 133.213 62.0298 132.825 62.7884C132.441 63.5469 131.898 64.1371 131.195 64.5589C130.492 64.9808 129.661 65.1918 128.702 65.1918ZM128.715 63.3381C129.235 63.3381 129.669 63.1953 130.019 62.9098C130.368 62.62 130.628 62.2322 130.799 61.7464C130.973 61.2607 131.061 60.7195 131.061 60.1229C131.061 59.522 130.973 58.9787 130.799 58.4929C130.628 58.0028 130.368 57.6129 130.019 57.3232C129.669 57.0334 129.235 56.8885 128.715 56.8885C128.182 56.8885 127.739 57.0334 127.385 57.3232C127.036 57.6129 126.774 58.0028 126.599 58.4929C126.429 58.9787 126.343 59.522 126.343 60.1229C126.343 60.7195 126.429 61.2607 126.599 61.7464C126.774 62.2322 127.036 62.62 127.385 62.9098C127.739 63.1953 128.182 63.3381 128.715 63.3381ZM143.806 55.1818L140.31 65H137.753L134.257 55.1818H136.724L138.98 62.4751H139.083L141.346 55.1818H143.806ZM149.42 65.1918C148.436 65.1918 147.586 64.9872 146.87 64.5781C146.158 64.1648 145.611 63.581 145.227 62.8267C144.844 62.0682 144.652 61.1754 144.652 60.1484C144.652 59.1385 144.844 58.2521 145.227 57.4893C145.615 56.7223 146.156 56.1257 146.851 55.6996C147.545 55.2692 148.361 55.054 149.299 55.054C149.904 55.054 150.475 55.152 151.012 55.348C151.553 55.5398 152.03 55.8381 152.444 56.2429C152.861 56.6477 153.189 57.1634 153.428 57.7898C153.667 58.4119 153.786 59.1534 153.786 60.0142V60.7237H145.738V59.1641H151.568C151.564 58.7209 151.468 58.3267 151.28 57.9815C151.093 57.6321 150.831 57.3572 150.494 57.157C150.162 56.9567 149.774 56.8565 149.331 56.8565C148.858 56.8565 148.442 56.9716 148.084 57.2017C147.726 57.4276 147.447 57.7259 147.247 58.0966C147.051 58.4631 146.951 58.8658 146.947 59.3047V60.6662C146.947 61.2372 147.051 61.7273 147.26 62.1364C147.469 62.5412 147.76 62.8523 148.135 63.0696C148.51 63.2827 148.949 63.3892 149.452 63.3892C149.789 63.3892 150.094 63.3423 150.366 63.2486C150.639 63.1506 150.876 63.0078 151.076 62.8203C151.276 62.6328 151.427 62.4006 151.53 62.1236L153.69 62.3665C153.554 62.9375 153.294 63.4361 152.91 63.8622C152.531 64.2841 152.045 64.6122 151.453 64.8466C150.861 65.0767 150.183 65.1918 149.42 65.1918ZM155.744 65V55.1818H157.987V56.8182H158.089C158.268 56.2514 158.575 55.8146 159.01 55.5078C159.449 55.1967 159.95 55.0412 160.512 55.0412C160.64 55.0412 160.783 55.0476 160.94 55.0604C161.102 55.0689 161.237 55.0838 161.343 55.1051V57.2337C161.245 57.1996 161.089 57.1697 160.876 57.1442C160.668 57.1143 160.465 57.0994 160.269 57.0994C159.847 57.0994 159.468 57.1911 159.131 57.3743C158.799 57.5533 158.537 57.8026 158.345 58.1222C158.153 58.4418 158.058 58.8104 158.058 59.228V65H155.744ZM172.248 55.1818V56.9716H166.604V55.1818H172.248ZM167.997 52.8295H170.311V62.0469C170.311 62.358 170.358 62.5966 170.452 62.7628C170.55 62.9247 170.678 63.0355 170.835 63.0952C170.993 63.1548 171.168 63.1847 171.359 63.1847C171.504 63.1847 171.636 63.174 171.756 63.1527C171.879 63.1314 171.973 63.1122 172.037 63.0952L172.427 64.9041C172.303 64.9467 172.126 64.9936 171.896 65.0447C171.67 65.0959 171.393 65.1257 171.065 65.1342C170.486 65.1513 169.964 65.0639 169.499 64.8722C169.035 64.6761 168.666 64.3736 168.393 63.9645C168.125 63.5554 167.993 63.044 167.997 62.4304V52.8295ZM174.183 65V55.1818H176.497V65H174.183ZM175.346 53.7884C174.98 53.7884 174.665 53.6669 174.4 53.424C174.136 53.1768 174.004 52.8807 174.004 52.5355C174.004 52.1861 174.136 51.8899 174.4 51.647C174.665 51.3999 174.98 51.2763 175.346 51.2763C175.717 51.2763 176.032 51.3999 176.292 51.647C176.557 51.8899 176.689 52.1861 176.689 52.5355C176.689 52.8807 176.557 53.1768 176.292 53.424C176.032 53.6669 175.717 53.7884 175.346 53.7884ZM178.876 65V55.1818H181.088V56.8501H181.203C181.408 56.2876 181.746 55.8487 182.219 55.5334C182.692 55.2138 183.257 55.054 183.913 55.054C184.578 55.054 185.138 55.2159 185.594 55.5398C186.055 55.8594 186.379 56.2962 186.566 56.8501H186.668C186.886 56.3047 187.252 55.87 187.768 55.5462C188.288 55.218 188.903 55.054 189.615 55.054C190.518 55.054 191.256 55.3395 191.827 55.9105C192.398 56.4815 192.683 57.3146 192.683 58.4098V65H190.363V58.7678C190.363 58.1584 190.201 57.7131 189.877 57.4318C189.553 57.1463 189.157 57.0036 188.688 57.0036C188.13 57.0036 187.693 57.1783 187.378 57.5277C187.067 57.8729 186.911 58.3224 186.911 58.8764V65H184.642V58.6719C184.642 58.1648 184.489 57.7599 184.182 57.4574C183.879 57.1548 183.483 57.0036 182.993 57.0036C182.661 57.0036 182.358 57.0888 182.085 57.2592C181.813 57.4254 181.595 57.6619 181.433 57.9688C181.271 58.2713 181.19 58.625 181.19 59.0298V65H178.876ZM199.377 65.1918C198.393 65.1918 197.543 64.9872 196.827 64.5781C196.115 64.1648 195.568 63.581 195.184 62.8267C194.801 62.0682 194.609 61.1754 194.609 60.1484C194.609 59.1385 194.801 58.2521 195.184 57.4893C195.572 56.7223 196.113 56.1257 196.808 55.6996C197.502 55.2692 198.318 55.054 199.256 55.054C199.861 55.054 200.432 55.152 200.969 55.348C201.51 55.5398 201.987 55.8381 202.401 56.2429C202.818 56.6477 203.146 57.1634 203.385 57.7898C203.624 58.4119 203.743 59.1534 203.743 60.0142V60.7237H195.695V59.1641H201.525C201.521 58.7209 201.425 58.3267 201.237 57.9815C201.05 57.6321 200.788 57.3572 200.451 57.157C200.119 56.9567 199.731 56.8565 199.288 56.8565C198.815 56.8565 198.399 56.9716 198.041 57.2017C197.683 57.4276 197.404 57.7259 197.204 58.0966C197.008 58.4631 196.908 58.8658 196.904 59.3047V60.6662C196.904 61.2372 197.008 61.7273 197.217 62.1364C197.426 62.5412 197.718 62.8523 198.093 63.0696C198.468 63.2827 198.906 63.3892 199.409 63.3892C199.746 63.3892 200.051 63.3423 200.323 63.2486C200.596 63.1506 200.833 63.0078 201.033 62.8203C201.233 62.6328 201.384 62.4006 201.487 62.1236L203.647 62.3665C203.511 62.9375 203.251 63.4361 202.867 63.8622C202.488 64.2841 202.002 64.6122 201.41 64.8466C200.818 65.0767 200.14 65.1918 199.377 65.1918Z" fill="#101828"/>
<line x1="68.5" y1="82.5" x2="803.5" y2="82.5" stroke="#F2F4F7" stroke-linecap="round"/>
<line x1="68.5" y1="150.6" x2="803.5" y2="150.6" stroke="#F2F4F7" stroke-linecap="round"/>
<line x1="68.5" y1="216.2" x2="803.5" y2="216.2" stroke="#F2F4F7" stroke-linecap="round"/>
<line x1="68.5" y1="281.8" x2="803.5" y2="281.8" stroke="#F2F4F7" stroke-linecap="round"/>
<line x1="68.5" y1="347.4" x2="803.5" y2="347.4" stroke="#F2F4F7" stroke-linecap="round"/>
<line x1="68.5" y1="413" x2="803.5" y2="413" stroke="#F2F4F7" stroke-linecap="round"/>
<path d="M96.7493 426.273H97.8061V432.511C97.8061 433.068 97.7038 433.541 97.4993 433.93C97.2947 434.32 97.0064 434.615 96.6342 434.817C96.2621 435.018 95.8232 435.119 95.3175 435.119C94.8402 435.119 94.4155 435.033 94.0433 434.859C93.6712 434.683 93.3786 434.433 93.1655 434.109C92.9524 433.786 92.8459 433.401 92.8459 432.955H93.8857C93.8857 433.202 93.9467 433.418 94.0689 433.602C94.1939 433.784 94.3643 433.926 94.5803 434.028C94.7962 434.131 95.0419 434.182 95.3175 434.182C95.6214 434.182 95.88 434.118 96.093 433.99C96.3061 433.862 96.468 433.675 96.5788 433.428C96.6925 433.178 96.7493 432.872 96.7493 432.511V426.273ZM101.714 435.153C101.299 435.153 100.923 435.075 100.585 434.919C100.246 434.76 99.978 434.531 99.7791 434.233C99.5803 433.932 99.4808 433.568 99.4808 433.142C99.4808 432.767 99.5547 432.463 99.7024 432.23C99.8501 431.994 100.048 431.81 100.295 431.676C100.542 431.543 100.815 431.443 101.113 431.378C101.414 431.31 101.717 431.256 102.021 431.216C102.418 431.165 102.741 431.126 102.988 431.101C103.238 431.072 103.42 431.026 103.533 430.96C103.65 430.895 103.708 430.781 103.708 430.619V430.585C103.708 430.165 103.593 429.838 103.363 429.605C103.136 429.372 102.79 429.256 102.327 429.256C101.847 429.256 101.471 429.361 101.198 429.571C100.925 429.781 100.734 430.006 100.623 430.244L99.6683 429.903C99.8388 429.506 100.066 429.196 100.35 428.974C100.637 428.75 100.95 428.594 101.288 428.506C101.629 428.415 101.964 428.369 102.293 428.369C102.504 428.369 102.745 428.395 103.018 428.446C103.293 428.494 103.559 428.595 103.815 428.749C104.073 428.902 104.288 429.134 104.458 429.443C104.629 429.753 104.714 430.168 104.714 430.688V435H103.708V434.114H103.657C103.589 434.256 103.475 434.408 103.316 434.57C103.157 434.732 102.945 434.869 102.681 434.983C102.417 435.097 102.094 435.153 101.714 435.153ZM101.867 434.25C102.265 434.25 102.6 434.172 102.873 434.016C103.148 433.859 103.356 433.658 103.495 433.411C103.637 433.163 103.708 432.903 103.708 432.631V431.71C103.665 431.761 103.572 431.808 103.427 431.851C103.285 431.891 103.12 431.926 102.933 431.957C102.748 431.986 102.567 432.011 102.391 432.034C102.218 432.054 102.077 432.071 101.969 432.085C101.708 432.119 101.464 432.175 101.237 432.251C101.012 432.325 100.83 432.437 100.691 432.588C100.555 432.736 100.487 432.937 100.487 433.193C100.487 433.543 100.616 433.807 100.874 433.986C101.136 434.162 101.467 434.25 101.867 434.25ZM107.555 431.062V435H106.549V428.455H107.521V429.477H107.606C107.76 429.145 107.993 428.878 108.305 428.676C108.618 428.472 109.021 428.369 109.515 428.369C109.958 428.369 110.346 428.46 110.679 428.642C111.011 428.821 111.27 429.094 111.454 429.46C111.639 429.824 111.731 430.284 111.731 430.841V435H110.725V430.909C110.725 430.395 110.592 429.994 110.325 429.707C110.058 429.418 109.691 429.273 109.225 429.273C108.904 429.273 108.618 429.342 108.365 429.482C108.115 429.621 107.917 429.824 107.772 430.091C107.627 430.358 107.555 430.682 107.555 431.062Z" fill="#475467"/>
<path d="M153.148 435V426.273H158.381V427.21H154.205V430.159H157.989V431.097H154.205V435H153.148ZM162.318 435.136C161.688 435.136 161.143 434.997 160.686 434.719C160.232 434.438 159.881 434.045 159.634 433.543C159.389 433.037 159.267 432.449 159.267 431.778C159.267 431.108 159.389 430.517 159.634 430.006C159.881 429.491 160.224 429.091 160.665 428.804C161.108 428.514 161.625 428.369 162.216 428.369C162.557 428.369 162.893 428.426 163.226 428.54C163.558 428.653 163.861 428.838 164.134 429.094C164.406 429.347 164.624 429.682 164.786 430.099C164.947 430.517 165.028 431.031 165.028 431.642V432.068H159.983V431.199H164.006C164.006 430.83 163.932 430.5 163.784 430.21C163.639 429.92 163.432 429.692 163.162 429.524C162.895 429.357 162.58 429.273 162.216 429.273C161.815 429.273 161.469 429.372 161.176 429.571C160.886 429.767 160.663 430.023 160.507 430.338C160.351 430.653 160.273 430.991 160.273 431.352V431.932C160.273 432.426 160.358 432.845 160.528 433.189C160.702 433.53 160.942 433.79 161.249 433.969C161.555 434.145 161.912 434.233 162.318 434.233C162.582 434.233 162.821 434.196 163.034 434.122C163.25 434.045 163.436 433.932 163.592 433.781C163.749 433.628 163.869 433.437 163.955 433.21L164.926 433.483C164.824 433.812 164.652 434.102 164.411 434.352C164.169 434.599 163.871 434.793 163.516 434.932C163.161 435.068 162.761 435.136 162.318 435.136ZM166.695 435V426.273H167.7V429.494H167.786C167.859 429.381 167.962 429.236 168.092 429.06C168.226 428.881 168.416 428.722 168.663 428.582C168.913 428.44 169.251 428.369 169.678 428.369C170.229 428.369 170.714 428.507 171.135 428.783C171.555 429.058 171.884 429.449 172.119 429.955C172.355 430.46 172.473 431.057 172.473 431.744C172.473 432.438 172.355 433.038 172.119 433.547C171.884 434.053 171.557 434.445 171.139 434.723C170.722 434.999 170.24 435.136 169.695 435.136C169.274 435.136 168.938 435.067 168.685 434.928C168.432 434.786 168.237 434.625 168.101 434.446C167.964 434.264 167.859 434.114 167.786 433.994H167.666V435H166.695ZM167.683 431.727C167.683 432.222 167.756 432.658 167.901 433.036C168.045 433.411 168.257 433.705 168.536 433.918C168.814 434.128 169.155 434.233 169.558 434.233C169.979 434.233 170.33 434.122 170.611 433.901C170.895 433.676 171.108 433.375 171.25 432.997C171.395 432.616 171.467 432.193 171.467 431.727C171.467 431.267 171.396 430.852 171.254 430.483C171.115 430.111 170.903 429.817 170.619 429.601C170.338 429.382 169.984 429.273 169.558 429.273C169.149 429.273 168.805 429.376 168.527 429.584C168.249 429.788 168.038 430.075 167.896 430.445C167.754 430.811 167.683 431.239 167.683 431.727Z" fill="#475467"/>
<path d="M213.287 426.273H214.549L217.515 433.517H217.617L220.583 426.273H221.844V435H220.856V428.369H220.77L218.043 435H217.089L214.361 428.369H214.276V435H213.287V426.273ZM225.753 435.153C225.338 435.153 224.962 435.075 224.624 434.919C224.286 434.76 224.017 434.531 223.818 434.233C223.62 433.932 223.52 433.568 223.52 433.142C223.52 432.767 223.594 432.463 223.742 432.23C223.889 431.994 224.087 431.81 224.334 431.676C224.581 431.543 224.854 431.443 225.152 431.378C225.453 431.31 225.756 431.256 226.06 431.216C226.458 431.165 226.78 431.126 227.027 431.101C227.277 431.072 227.459 431.026 227.573 430.96C227.689 430.895 227.747 430.781 227.747 430.619V430.585C227.747 430.165 227.632 429.838 227.402 429.605C227.175 429.372 226.83 429.256 226.367 429.256C225.887 429.256 225.51 429.361 225.237 429.571C224.965 429.781 224.773 430.006 224.662 430.244L223.708 429.903C223.878 429.506 224.105 429.196 224.389 428.974C224.676 428.75 224.989 428.594 225.327 428.506C225.668 428.415 226.003 428.369 226.333 428.369C226.543 428.369 226.784 428.395 227.057 428.446C227.333 428.494 227.598 428.595 227.854 428.749C228.112 428.902 228.327 429.134 228.497 429.443C228.668 429.753 228.753 430.168 228.753 430.688V435H227.747V434.114H227.696C227.628 434.256 227.514 434.408 227.355 434.57C227.196 434.732 226.985 434.869 226.72 434.983C226.456 435.097 226.134 435.153 225.753 435.153ZM225.906 434.25C226.304 434.25 226.639 434.172 226.912 434.016C227.188 433.859 227.395 433.658 227.534 433.411C227.676 433.163 227.747 432.903 227.747 432.631V431.71C227.705 431.761 227.611 431.808 227.466 431.851C227.324 431.891 227.159 431.926 226.972 431.957C226.787 431.986 226.607 432.011 226.431 432.034C226.257 432.054 226.117 432.071 226.009 432.085C225.747 432.119 225.503 432.175 225.276 432.251C225.051 432.325 224.87 432.437 224.73 432.588C224.594 432.736 224.526 432.937 224.526 433.193C224.526 433.543 224.655 433.807 224.914 433.986C225.175 434.162 225.506 434.25 225.906 434.25ZM230.589 435V428.455H231.56V429.443H231.628C231.748 429.119 231.964 428.857 232.276 428.655C232.589 428.453 232.941 428.352 233.333 428.352C233.407 428.352 233.499 428.354 233.61 428.357C233.721 428.359 233.805 428.364 233.861 428.369V429.392C233.827 429.384 233.749 429.371 233.627 429.354C233.508 429.334 233.381 429.324 233.248 429.324C232.93 429.324 232.645 429.391 232.395 429.524C232.148 429.655 231.952 429.837 231.807 430.07C231.665 430.3 231.594 430.562 231.594 430.858V435H230.589Z" fill="#475467"/>
<path d="M274.744 435H273.636L276.841 426.273H277.932L281.136 435H280.028L277.42 427.653H277.352L274.744 435ZM275.153 431.591H279.619V432.528H275.153V431.591ZM282.359 437.455V428.455H283.331V429.494H283.45C283.524 429.381 283.626 429.236 283.757 429.06C283.89 428.881 284.081 428.722 284.328 428.582C284.578 428.44 284.916 428.369 285.342 428.369C285.893 428.369 286.379 428.507 286.8 428.783C287.22 429.058 287.548 429.449 287.784 429.955C288.02 430.46 288.138 431.057 288.138 431.744C288.138 432.438 288.02 433.038 287.784 433.547C287.548 434.053 287.221 434.445 286.804 434.723C286.386 434.999 285.905 435.136 285.359 435.136C284.939 435.136 284.602 435.067 284.349 434.928C284.096 434.786 283.902 434.625 283.765 434.446C283.629 434.264 283.524 434.114 283.45 433.994H283.365V437.455H282.359ZM283.348 431.727C283.348 432.222 283.42 432.658 283.565 433.036C283.71 433.411 283.922 433.705 284.2 433.918C284.479 434.128 284.819 434.233 285.223 434.233C285.643 434.233 285.994 434.122 286.275 433.901C286.559 433.676 286.773 433.375 286.915 432.997C287.059 432.616 287.132 432.193 287.132 431.727C287.132 431.267 287.061 430.852 286.919 430.483C286.78 430.111 286.568 429.817 286.284 429.601C286.003 429.382 285.649 429.273 285.223 429.273C284.814 429.273 284.47 429.376 284.192 429.584C283.913 429.788 283.703 430.075 283.561 430.445C283.419 430.811 283.348 431.239 283.348 431.727ZM289.672 435V428.455H290.643V429.443H290.711C290.831 429.119 291.047 428.857 291.359 428.655C291.672 428.453 292.024 428.352 292.416 428.352C292.49 428.352 292.582 428.354 292.693 428.357C292.804 428.359 292.888 428.364 292.944 428.369V429.392C292.91 429.384 292.832 429.371 292.71 429.354C292.591 429.334 292.464 429.324 292.331 429.324C292.013 429.324 291.729 429.391 291.479 429.524C291.231 429.655 291.035 429.837 290.89 430.07C290.748 430.3 290.677 430.562 290.677 430.858V435H289.672Z" fill="#475467"/>
<path d="M333.479 426.273H334.74L337.706 433.517H337.809L340.775 426.273H342.036V435H341.047V428.369H340.962L338.235 435H337.28L334.553 428.369H334.468V435H333.479V426.273ZM345.945 435.153C345.53 435.153 345.153 435.075 344.815 434.919C344.477 434.76 344.209 434.531 344.01 434.233C343.811 433.932 343.712 433.568 343.712 433.142C343.712 432.767 343.786 432.463 343.933 432.23C344.081 431.994 344.278 431.81 344.526 431.676C344.773 431.543 345.045 431.443 345.344 431.378C345.645 431.31 345.947 431.256 346.251 431.216C346.649 431.165 346.972 431.126 347.219 431.101C347.469 431.072 347.651 431.026 347.764 430.96C347.881 430.895 347.939 430.781 347.939 430.619V430.585C347.939 430.165 347.824 429.838 347.594 429.605C347.366 429.372 347.021 429.256 346.558 429.256C346.078 429.256 345.702 429.361 345.429 429.571C345.156 429.781 344.964 430.006 344.854 430.244L343.899 429.903C344.07 429.506 344.297 429.196 344.581 428.974C344.868 428.75 345.18 428.594 345.518 428.506C345.859 428.415 346.195 428.369 346.524 428.369C346.734 428.369 346.976 428.395 347.249 428.446C347.524 428.494 347.79 428.595 348.045 428.749C348.304 428.902 348.518 429.134 348.689 429.443C348.859 429.753 348.945 430.168 348.945 430.688V435H347.939V434.114H347.888C347.82 434.256 347.706 434.408 347.547 434.57C347.388 434.732 347.176 434.869 346.912 434.983C346.648 435.097 346.325 435.153 345.945 435.153ZM346.098 434.25C346.496 434.25 346.831 434.172 347.104 434.016C347.379 433.859 347.587 433.658 347.726 433.411C347.868 433.163 347.939 432.903 347.939 432.631V431.71C347.896 431.761 347.803 431.808 347.658 431.851C347.516 431.891 347.351 431.926 347.163 431.957C346.979 431.986 346.798 432.011 346.622 432.034C346.449 432.054 346.308 432.071 346.2 432.085C345.939 432.119 345.695 432.175 345.467 432.251C345.243 432.325 345.061 432.437 344.922 432.588C344.786 432.736 344.717 432.937 344.717 433.193C344.717 433.543 344.847 433.807 345.105 433.986C345.366 434.162 345.697 434.25 346.098 434.25ZM351.194 437.455C351.023 437.455 350.871 437.44 350.738 437.412C350.604 437.386 350.512 437.361 350.461 437.335L350.716 436.449C350.961 436.511 351.177 436.534 351.364 436.517C351.552 436.5 351.718 436.416 351.863 436.266C352.01 436.118 352.145 435.878 352.267 435.545L352.455 435.034L350.034 428.455H351.125L352.932 433.67H353L354.807 428.455H355.898L353.12 435.955C352.995 436.293 352.84 436.572 352.655 436.794C352.471 437.018 352.256 437.185 352.012 437.293C351.77 437.401 351.498 437.455 351.194 437.455Z" fill="#475467"/>
<path d="M400.098 426.273H401.155V432.511C401.155 433.068 401.053 433.541 400.848 433.93C400.644 434.32 400.355 434.615 399.983 434.817C399.611 435.018 399.172 435.119 398.667 435.119C398.189 435.119 397.765 435.033 397.392 434.859C397.02 434.683 396.728 434.433 396.515 434.109C396.302 433.786 396.195 433.401 396.195 432.955H397.235C397.235 433.202 397.296 433.418 397.418 433.602C397.543 433.784 397.713 433.926 397.929 434.028C398.145 434.131 398.391 434.182 398.667 434.182C398.971 434.182 399.229 434.118 399.442 433.99C399.655 433.862 399.817 433.675 399.928 433.428C400.042 433.178 400.098 432.872 400.098 432.511V426.273ZM407.262 432.324V428.455H408.267V435H407.262V433.892H407.194C407.04 434.224 406.802 434.507 406.478 434.74C406.154 434.97 405.745 435.085 405.25 435.085C404.841 435.085 404.478 434.996 404.159 434.817C403.841 434.635 403.591 434.362 403.409 433.999C403.228 433.632 403.137 433.17 403.137 432.614V428.455H404.142V432.545C404.142 433.023 404.276 433.403 404.543 433.688C404.813 433.972 405.157 434.114 405.574 434.114C405.824 434.114 406.078 434.05 406.337 433.922C406.598 433.794 406.817 433.598 406.993 433.334C407.172 433.07 407.262 432.733 407.262 432.324ZM411.115 431.062V435H410.109V428.455H411.081V429.477H411.166C411.32 429.145 411.553 428.878 411.865 428.676C412.178 428.472 412.581 428.369 413.075 428.369C413.518 428.369 413.906 428.46 414.239 428.642C414.571 428.821 414.83 429.094 415.014 429.46C415.199 429.824 415.291 430.284 415.291 430.841V435H414.286V430.909C414.286 430.395 414.152 429.994 413.885 429.707C413.618 429.418 413.251 429.273 412.786 429.273C412.465 429.273 412.178 429.342 411.925 429.482C411.675 429.621 411.477 429.824 411.332 430.091C411.188 430.358 411.115 430.682 411.115 431.062Z" fill="#475467"/>
<path d="M460.275 426.273H461.332V432.511C461.332 433.068 461.23 433.541 461.025 433.93C460.821 434.32 460.532 434.615 460.16 434.817C459.788 435.018 459.349 435.119 458.843 435.119C458.366 435.119 457.941 435.033 457.569 434.859C457.197 434.683 456.904 434.433 456.691 434.109C456.478 433.786 456.372 433.401 456.372 432.955H457.412C457.412 433.202 457.473 433.418 457.595 433.602C457.72 433.784 457.89 433.926 458.106 434.028C458.322 434.131 458.568 434.182 458.843 434.182C459.147 434.182 459.406 434.118 459.619 433.99C459.832 433.862 459.994 433.675 460.105 433.428C460.218 433.178 460.275 432.872 460.275 432.511V426.273ZM467.439 432.324V428.455H468.444V435H467.439V433.892H467.37C467.217 434.224 466.978 434.507 466.654 434.74C466.331 434.97 465.922 435.085 465.427 435.085C465.018 435.085 464.654 434.996 464.336 434.817C464.018 434.635 463.768 434.362 463.586 433.999C463.404 433.632 463.314 433.17 463.314 432.614V428.455H464.319V432.545C464.319 433.023 464.453 433.403 464.72 433.688C464.99 433.972 465.333 434.114 465.751 434.114C466.001 434.114 466.255 434.05 466.514 433.922C466.775 433.794 466.994 433.598 467.17 433.334C467.349 433.07 467.439 432.733 467.439 432.324ZM471.292 426.273V435H470.286V426.273H471.292Z" fill="#475467"/>
<path d="M513.354 435H512.246L515.45 426.273H516.541L519.746 435H518.638L516.03 427.653H515.962L513.354 435ZM513.763 431.591H518.229V432.528H513.763V431.591ZM525.094 432.324V428.455H526.1V435H525.094V433.892H525.026C524.872 434.224 524.634 434.507 524.31 434.74C523.986 434.97 523.577 435.085 523.083 435.085C522.673 435.085 522.31 434.996 521.992 434.817C521.673 434.635 521.423 434.362 521.242 433.999C521.06 433.632 520.969 433.17 520.969 432.614V428.455H521.975V432.545C521.975 433.023 522.108 433.403 522.375 433.688C522.645 433.972 522.989 434.114 523.406 434.114C523.656 434.114 523.911 434.05 524.169 433.922C524.431 433.794 524.649 433.598 524.825 433.334C525.004 433.07 525.094 432.733 525.094 432.324ZM530.584 437.591C530.098 437.591 529.68 437.528 529.331 437.403C528.981 437.281 528.69 437.119 528.457 436.918C528.227 436.719 528.044 436.506 527.908 436.278L528.709 435.716C528.8 435.835 528.915 435.972 529.054 436.125C529.193 436.281 529.383 436.416 529.625 436.53C529.869 436.646 530.189 436.705 530.584 436.705C531.112 436.705 531.548 436.577 531.892 436.321C532.236 436.065 532.408 435.665 532.408 435.119V433.79H532.322C532.248 433.909 532.143 434.057 532.007 434.233C531.873 434.406 531.68 434.561 531.427 434.697C531.177 434.831 530.839 434.898 530.413 434.898C529.885 434.898 529.41 434.773 528.99 434.523C528.572 434.273 528.241 433.909 527.997 433.432C527.756 432.955 527.635 432.375 527.635 431.693C527.635 431.023 527.753 430.439 527.988 429.942C528.224 429.442 528.552 429.055 528.973 428.783C529.393 428.507 529.879 428.369 530.43 428.369C530.856 428.369 531.194 428.44 531.444 428.582C531.697 428.722 531.89 428.881 532.024 429.06C532.16 429.236 532.265 429.381 532.339 429.494H532.442V428.455H533.413V435.188C533.413 435.75 533.285 436.207 533.03 436.56C532.777 436.915 532.436 437.175 532.007 437.339C531.581 437.507 531.106 437.591 530.584 437.591ZM530.55 433.994C530.953 433.994 531.294 433.902 531.572 433.717C531.851 433.533 532.062 433.267 532.207 432.92C532.352 432.574 532.425 432.159 532.425 431.676C532.425 431.205 532.354 430.788 532.211 430.428C532.069 430.067 531.859 429.784 531.581 429.58C531.302 429.375 530.959 429.273 530.55 429.273C530.123 429.273 529.768 429.381 529.484 429.597C529.203 429.812 528.991 430.102 528.849 430.466C528.71 430.83 528.64 431.233 528.64 431.676C528.64 432.131 528.711 432.533 528.854 432.882C528.998 433.229 529.211 433.501 529.493 433.7C529.777 433.896 530.129 433.994 530.55 433.994Z" fill="#475467"/>
<path d="M579.582 428.455C579.531 428.023 579.324 427.688 578.96 427.449C578.596 427.21 578.15 427.091 577.622 427.091C577.236 427.091 576.898 427.153 576.608 427.278C576.321 427.403 576.096 427.575 575.935 427.794C575.775 428.013 575.696 428.261 575.696 428.54C575.696 428.773 575.751 428.973 575.862 429.141C575.976 429.305 576.121 429.443 576.297 429.554C576.473 429.662 576.658 429.751 576.851 429.822C577.044 429.891 577.221 429.946 577.383 429.989L578.27 430.227C578.497 430.287 578.75 430.369 579.028 430.474C579.31 430.58 579.578 430.723 579.834 430.905C580.092 431.084 580.305 431.314 580.473 431.595C580.64 431.876 580.724 432.222 580.724 432.631C580.724 433.102 580.601 433.528 580.354 433.909C580.109 434.29 579.751 434.592 579.28 434.817C578.811 435.041 578.241 435.153 577.571 435.153C576.946 435.153 576.405 435.053 575.947 434.851C575.493 434.649 575.135 434.368 574.873 434.007C574.615 433.646 574.469 433.227 574.435 432.75H575.525C575.554 433.08 575.665 433.352 575.858 433.568C576.054 433.781 576.301 433.94 576.599 434.045C576.9 434.148 577.224 434.199 577.571 434.199C577.974 434.199 578.336 434.134 578.658 434.003C578.979 433.869 579.233 433.685 579.42 433.449C579.608 433.21 579.702 432.932 579.702 432.614C579.702 432.324 579.621 432.088 579.459 431.906C579.297 431.724 579.084 431.577 578.819 431.463C578.555 431.349 578.27 431.25 577.963 431.165L576.889 430.858C576.207 430.662 575.667 430.382 575.27 430.018C574.872 429.655 574.673 429.179 574.673 428.591C574.673 428.102 574.805 427.676 575.069 427.312C575.336 426.946 575.694 426.662 576.143 426.46C576.595 426.256 577.099 426.153 577.656 426.153C578.219 426.153 578.719 426.254 579.156 426.456C579.594 426.655 579.94 426.928 580.196 427.274C580.454 427.621 580.591 428.014 580.605 428.455H579.582ZM585.07 435.136C584.439 435.136 583.895 434.997 583.438 434.719C582.983 434.438 582.632 434.045 582.385 433.543C582.141 433.037 582.019 432.449 582.019 431.778C582.019 431.108 582.141 430.517 582.385 430.006C582.632 429.491 582.976 429.091 583.416 428.804C583.86 428.514 584.377 428.369 584.968 428.369C585.308 428.369 585.645 428.426 585.977 428.54C586.31 428.653 586.612 428.838 586.885 429.094C587.158 429.347 587.375 429.682 587.537 430.099C587.699 430.517 587.78 431.031 587.78 431.642V432.068H582.735V431.199H586.757C586.757 430.83 586.683 430.5 586.536 430.21C586.391 429.92 586.183 429.692 585.914 429.524C585.647 429.357 585.331 429.273 584.968 429.273C584.567 429.273 584.22 429.372 583.928 429.571C583.638 429.767 583.415 430.023 583.259 430.338C583.102 430.653 583.024 430.991 583.024 431.352V431.932C583.024 432.426 583.11 432.845 583.28 433.189C583.453 433.53 583.693 433.79 584 433.969C584.307 434.145 584.664 434.233 585.07 434.233C585.334 434.233 585.573 434.196 585.786 434.122C586.002 434.045 586.188 433.932 586.344 433.781C586.5 433.628 586.621 433.437 586.706 433.21L587.678 433.483C587.575 433.812 587.404 434.102 587.162 434.352C586.921 434.599 586.622 434.793 586.267 434.932C585.912 435.068 585.513 435.136 585.07 435.136ZM589.31 437.455V428.455H590.281V429.494H590.401C590.475 429.381 590.577 429.236 590.708 429.06C590.841 428.881 591.031 428.722 591.279 428.582C591.529 428.44 591.867 428.369 592.293 428.369C592.844 428.369 593.33 428.507 593.75 428.783C594.171 429.058 594.499 429.449 594.735 429.955C594.97 430.46 595.088 431.057 595.088 431.744C595.088 432.438 594.97 433.038 594.735 433.547C594.499 434.053 594.172 434.445 593.754 434.723C593.337 434.999 592.855 435.136 592.31 435.136C591.889 435.136 591.553 435.067 591.3 434.928C591.047 434.786 590.852 434.625 590.716 434.446C590.58 434.264 590.475 434.114 590.401 433.994H590.316V437.455H589.31ZM590.298 431.727C590.298 432.222 590.371 432.658 590.516 433.036C590.661 433.411 590.872 433.705 591.151 433.918C591.429 434.128 591.77 434.233 592.173 434.233C592.594 434.233 592.945 434.122 593.226 433.901C593.51 433.676 593.723 433.375 593.865 432.997C594.01 432.616 594.083 432.193 594.083 431.727C594.083 431.267 594.012 430.852 593.87 430.483C593.73 430.111 593.519 429.817 593.235 429.601C592.953 429.382 592.6 429.273 592.173 429.273C591.764 429.273 591.421 429.376 591.142 429.584C590.864 429.788 590.654 430.075 590.512 430.445C590.37 430.811 590.298 431.239 590.298 431.727Z" fill="#475467"/>
<path d="M643.637 430.636C643.637 431.557 643.471 432.352 643.138 433.023C642.806 433.693 642.35 434.21 641.771 434.574C641.191 434.938 640.529 435.119 639.785 435.119C639.04 435.119 638.379 434.938 637.799 434.574C637.219 434.21 636.763 433.693 636.431 433.023C636.099 432.352 635.933 431.557 635.933 430.636C635.933 429.716 636.099 428.92 636.431 428.25C636.763 427.58 637.219 427.062 637.799 426.699C638.379 426.335 639.04 426.153 639.785 426.153C640.529 426.153 641.191 426.335 641.771 426.699C642.35 427.062 642.806 427.58 643.138 428.25C643.471 428.92 643.637 429.716 643.637 430.636ZM642.614 430.636C642.614 429.881 642.488 429.243 642.235 428.723C641.985 428.203 641.646 427.81 641.217 427.543C640.79 427.276 640.313 427.142 639.785 427.142C639.256 427.142 638.778 427.276 638.349 427.543C637.923 427.81 637.583 428.203 637.33 428.723C637.08 429.243 636.955 429.881 636.955 430.636C636.955 431.392 637.08 432.03 637.33 432.55C637.583 433.07 637.923 433.463 638.349 433.73C638.778 433.997 639.256 434.131 639.785 434.131C640.313 434.131 640.79 433.997 641.217 433.73C641.646 433.463 641.985 433.07 642.235 432.55C642.488 432.03 642.614 431.392 642.614 430.636ZM647.937 435.136C647.323 435.136 646.795 434.991 646.352 434.702C645.908 434.412 645.567 434.013 645.329 433.504C645.09 432.996 644.971 432.415 644.971 431.761C644.971 431.097 645.093 430.51 645.337 430.001C645.585 429.49 645.928 429.091 646.369 428.804C646.812 428.514 647.329 428.369 647.92 428.369C648.38 428.369 648.795 428.455 649.164 428.625C649.533 428.795 649.836 429.034 650.072 429.341C650.308 429.648 650.454 430.006 650.511 430.415H649.505C649.428 430.116 649.258 429.852 648.994 429.622C648.732 429.389 648.38 429.273 647.937 429.273C647.545 429.273 647.201 429.375 646.906 429.58C646.613 429.781 646.384 430.067 646.219 430.436C646.058 430.803 645.977 431.233 645.977 431.727C645.977 432.233 646.056 432.673 646.215 433.048C646.377 433.423 646.604 433.714 646.897 433.922C647.192 434.129 647.539 434.233 647.937 434.233C648.198 434.233 648.435 434.188 648.648 434.097C648.862 434.006 649.042 433.875 649.19 433.705C649.337 433.534 649.442 433.33 649.505 433.091H650.511C650.454 433.477 650.313 433.825 650.089 434.135C649.867 434.442 649.573 434.686 649.207 434.868C648.843 435.047 648.42 435.136 647.937 435.136ZM654.827 428.455V429.307H651.435V428.455H654.827ZM652.424 426.886H653.43V433.125C653.43 433.409 653.471 433.622 653.553 433.764C653.638 433.903 653.746 433.997 653.877 434.045C654.011 434.091 654.151 434.114 654.299 434.114C654.41 434.114 654.501 434.108 654.572 434.097C654.643 434.082 654.7 434.071 654.742 434.062L654.947 434.966C654.879 434.991 654.783 435.017 654.661 435.043C654.539 435.071 654.384 435.085 654.197 435.085C653.913 435.085 653.634 435.024 653.362 434.902C653.092 434.78 652.867 434.594 652.688 434.344C652.512 434.094 652.424 433.778 652.424 433.398V426.886Z" fill="#475467"/>
<path d="M703.066 426.273V435H702.043L697.288 428.148H697.202V435H696.146V426.273H697.168L701.941 433.142H702.026V426.273H703.066ZM707.703 435.136C707.113 435.136 706.594 434.996 706.148 434.714C705.705 434.433 705.358 434.04 705.108 433.534C704.861 433.028 704.738 432.437 704.738 431.761C704.738 431.08 704.861 430.484 705.108 429.976C705.358 429.467 705.705 429.072 706.148 428.791C706.594 428.51 707.113 428.369 707.703 428.369C708.294 428.369 708.811 428.51 709.255 428.791C709.701 429.072 710.047 429.467 710.294 429.976C710.544 430.484 710.669 431.08 710.669 431.761C710.669 432.437 710.544 433.028 710.294 433.534C710.047 434.04 709.701 434.433 709.255 434.714C708.811 434.996 708.294 435.136 707.703 435.136ZM707.703 434.233C708.152 434.233 708.522 434.118 708.811 433.888C709.101 433.658 709.316 433.355 709.455 432.98C709.594 432.605 709.664 432.199 709.664 431.761C709.664 431.324 709.594 430.916 709.455 430.538C709.316 430.161 709.101 429.855 708.811 429.622C708.522 429.389 708.152 429.273 707.703 429.273C707.255 429.273 706.885 429.389 706.595 429.622C706.306 429.855 706.091 430.161 705.952 430.538C705.813 430.916 705.743 431.324 705.743 431.761C705.743 432.199 705.813 432.605 705.952 432.98C706.091 433.355 706.306 433.658 706.595 433.888C706.885 434.118 707.255 434.233 707.703 434.233ZM717.322 428.455L714.902 435H713.879L711.459 428.455H712.55L714.357 433.67H714.425L716.232 428.455H717.322Z" fill="#475467"/>
<path d="M761.094 435H758.401V426.273H761.213C762.06 426.273 762.784 426.447 763.386 426.797C763.989 427.143 764.45 427.642 764.771 428.293C765.092 428.94 765.253 429.716 765.253 430.619C765.253 431.528 765.091 432.311 764.767 432.967C764.443 433.621 763.972 434.124 763.352 434.476C762.733 434.825 761.98 435 761.094 435ZM759.457 434.062H761.026C761.747 434.062 762.345 433.923 762.82 433.645C763.294 433.366 763.648 432.97 763.881 432.456C764.114 431.942 764.23 431.33 764.23 430.619C764.23 429.915 764.115 429.308 763.885 428.8C763.655 428.288 763.311 427.896 762.854 427.624C762.396 427.348 761.827 427.21 761.145 427.21H759.457V434.062ZM769.633 435.136C769.003 435.136 768.459 434.997 768.001 434.719C767.547 434.438 767.196 434.045 766.949 433.543C766.704 433.037 766.582 432.449 766.582 431.778C766.582 431.108 766.704 430.517 766.949 430.006C767.196 429.491 767.54 429.091 767.98 428.804C768.423 428.514 768.94 428.369 769.531 428.369C769.872 428.369 770.209 428.426 770.541 428.54C770.874 428.653 771.176 428.838 771.449 429.094C771.722 429.347 771.939 429.682 772.101 430.099C772.263 430.517 772.344 431.031 772.344 431.642V432.068H767.298V431.199H771.321C771.321 430.83 771.247 430.5 771.099 430.21C770.954 429.92 770.747 429.692 770.477 429.524C770.21 429.357 769.895 429.273 769.531 429.273C769.131 429.273 768.784 429.372 768.491 429.571C768.202 429.767 767.979 430.023 767.822 430.338C767.666 430.653 767.588 430.991 767.588 431.352V431.932C767.588 432.426 767.673 432.845 767.844 433.189C768.017 433.53 768.257 433.79 768.564 433.969C768.871 434.145 769.227 434.233 769.633 434.233C769.898 434.233 770.136 434.196 770.349 434.122C770.565 434.045 770.751 433.932 770.908 433.781C771.064 433.628 771.185 433.437 771.27 433.21L772.241 433.483C772.139 433.812 771.967 434.102 771.726 434.352C771.484 434.599 771.186 434.793 770.831 434.932C770.476 435.068 770.077 435.136 769.633 435.136ZM776.533 435.136C775.919 435.136 775.391 434.991 774.947 434.702C774.504 434.412 774.163 434.013 773.925 433.504C773.686 432.996 773.567 432.415 773.567 431.761C773.567 431.097 773.689 430.51 773.933 430.001C774.18 429.49 774.524 429.091 774.964 428.804C775.408 428.514 775.925 428.369 776.516 428.369C776.976 428.369 777.391 428.455 777.76 428.625C778.129 428.795 778.432 429.034 778.668 429.341C778.903 429.648 779.05 430.006 779.106 430.415H778.101C778.024 430.116 777.854 429.852 777.589 429.622C777.328 429.389 776.976 429.273 776.533 429.273C776.141 429.273 775.797 429.375 775.501 429.58C775.209 429.781 774.98 430.067 774.815 430.436C774.653 430.803 774.572 431.233 774.572 431.727C774.572 432.233 774.652 432.673 774.811 433.048C774.973 433.423 775.2 433.714 775.493 433.922C775.788 434.129 776.135 434.233 776.533 434.233C776.794 434.233 777.031 434.188 777.244 434.097C777.457 434.006 777.638 433.875 777.785 433.705C777.933 433.534 778.038 433.33 778.101 433.091H779.106C779.05 433.477 778.909 433.825 778.685 434.135C778.463 434.442 778.169 434.686 777.802 434.868C777.439 435.047 777.016 435.136 776.533 435.136Z" fill="#475467"/>
<mask id="mask0_1_3862" style="mask-type:alpha" maskUnits="userSpaceOnUse" x="68" y="118" width="736" height="294">
<rect width="736" height="294" transform="translate(68 118)" fill="url(#paint0_linear_1_3862)"/>
</mask>
<g mask="url(#mask0_1_3862)">
<path opacity="0.1" d="M84.6799 216.835L68 222.521V412H804V153.458L788.363 162.901H771.683L763.864 171.743H753.439C750.659 173.216 744.891 176.164 744.057 176.164C743.223 176.164 737.802 177.932 735.195 178.816L712.782 181.469L699.751 185.005L678.901 181.469L667.955 178.816L652.317 185.005H636.159L622.606 178.816C617.394 177.932 606.76 176.164 605.926 176.164C605.092 176.164 598.281 174.395 594.98 173.511H586.64L566.833 176.164L549.632 178.816L541.813 185.005L518.357 187.658L506.368 190.31L492.816 194.731L479.785 205.341H474.051L458.414 202.689L443.297 194.731L430.266 190.31H422.448L408.895 187.658L389.609 190.31H371.365L353.122 194.731L334.878 200.036L321.326 205.341L306.731 207.994L286.924 205.341L271.286 207.994L255.649 210.646L241.054 207.994L221.246 214.183L204.567 210.646L187.887 214.183H171.728L154.527 216.835H136.805L119.082 219.488L101.881 214.183L84.6799 216.835Z" fill="#7F56D9"/>
</g>
<path d="M68 222.521L84.6799 216.835L101.881 214.183L119.082 219.488L136.805 216.835H154.527L171.728 214.183H187.887L204.567 210.646L221.246 214.183L241.054 207.994L255.649 210.646L271.286 207.994L286.924 205.341L306.731 207.994L321.326 205.341L334.878 200.036L353.122 194.731L371.365 190.31H389.609L408.895 187.658L422.448 190.31H430.266L443.297 194.731L458.414 202.689L474.051 205.341H479.785L492.816 194.731L506.368 190.31L518.357 187.658L541.813 185.005L549.632 178.816L566.833 176.164L586.64 173.511H594.98C598.281 174.395 605.092 176.164 605.926 176.164C606.76 176.164 617.394 177.932 622.606 178.816L636.159 185.005H652.317L667.955 178.816L678.901 181.469L699.751 185.005L712.782 181.469L735.195 178.816C737.802 177.932 743.223 176.164 744.057 176.164C744.891 176.164 750.659 173.216 753.439 171.743H763.864L771.683 162.901H788.363L804 153.458" stroke="#7F56D9" stroke-width="2" stroke-linecap="round" stroke-linejoin="round"/>
<path d="M68 291.304L84.6799 287.683L101.881 285.993L119.082 289.372L136.805 287.683H154.527L171.728 285.993H187.887L204.567 283.74L221.246 285.993L241.054 282.051L255.649 283.74L271.286 282.051L286.924 280.361L306.731 282.051L321.326 280.361L334.878 276.982L353.122 273.603L371.365 270.787H389.609L408.895 269.097L422.448 270.787H430.266L443.297 273.603L458.414 278.672L474.051 280.361H479.785L492.816 273.603L506.368 270.787L518.357 269.097L541.813 267.407L549.632 263.465L566.833 261.775L586.64 260.086H594.98C598.281 260.649 605.092 261.775 605.926 261.775C606.76 261.775 617.394 262.902 622.606 263.465L636.159 267.407H652.317L667.955 263.465L678.901 265.155L699.751 267.407L712.782 265.155L735.195 263.465C737.802 262.902 743.223 261.775 744.057 261.775C744.891 261.775 750.659 259.898 753.439 258.959H763.864L771.683 253.327H788.363L804 247.312" stroke="#B692F6" stroke-width="2" stroke-linecap="round" stroke-linejoin="round"/>
<path d="M68 378.354L84.6799 368.733L101.881 364.244L119.082 373.221L136.805 368.733H154.527L171.728 364.244H187.887L204.567 358.259L221.246 364.244L241.054 353.77L255.649 358.259L271.286 353.77L286.924 349.281L306.731 353.77L321.326 349.281L334.878 340.303L353.122 331.325L371.365 323.844H389.609L408.895 319.355L422.448 323.844H430.266L443.297 331.325L458.414 344.792L474.051 349.281H479.785L492.816 331.325L506.368 323.844L518.357 319.355L541.813 314.866L549.632 304.392L566.833 299.903L586.64 295.415H594.98C598.281 296.911 605.092 299.903 605.926 299.903C606.76 299.903 617.394 302.896 622.606 304.392L636.159 314.866H652.317L667.955 304.392L678.901 308.881L699.751 314.866L712.782 308.881L735.195 304.392C737.802 302.896 743.223 299.903 744.057 299.903C744.891 299.903 750.659 294.916 753.439 292.422H763.864L771.683 277.459H788.363L804 261.479" stroke="#6941C6" stroke-width="2" stroke-linecap="round" stroke-linejoin="round"/>
</g>
<path d="M796 256C810.708 256 825.272 258.897 838.861 264.525C852.449 270.154 864.796 278.404 875.196 288.804C885.596 299.204 893.846 311.551 899.475 325.139C905.103 338.728 908 353.292 908 368C908 382.708 905.103 397.272 899.474 410.861C893.846 424.449 885.596 436.796 875.196 447.196C864.796 457.596 852.449 465.846 838.861 471.475C825.272 477.103 810.708 480 796 480C781.292 480 766.728 477.103 753.139 471.474C739.551 465.846 727.204 457.596 716.804 447.196C706.404 436.796 698.154 424.449 692.525 410.86C686.897 397.272 684 382.708 684 368C684 353.292 686.897 338.728 692.526 325.139C698.154 311.551 706.404 299.204 716.804 288.804C727.204 278.404 739.551 270.154 753.14 264.525C766.728 258.897 781.292 256 796 256L796 256Z" stroke="#F2F4F7" stroke-width="16" stroke-linecap="round" stroke-linejoin="round"/>
<path d="M796 256C821.635 256 846.494 264.794 866.427 280.913C886.359 297.033 900.159 319.502 905.522 344.57C910.885 369.638 907.486 395.787 895.893 418.65C884.3 441.514 865.214 459.709 841.823 470.197C818.432 480.685 792.15 482.832 767.367 476.278C742.584 469.725 720.799 454.868 705.65 434.188C690.501 413.509 682.904 388.258 684.128 362.652C685.352 337.046 695.323 312.636 712.376 293.495" stroke="#6941C6" stroke-width="16" stroke-linecap="round" stroke-linejoin="round"/>
<path d="M796 276C808.082 276 820.045 278.38 831.207 283.003C842.369 287.627 852.511 294.403 861.054 302.946C869.597 311.489 876.373 321.631 880.997 332.793C885.62 343.955 888 355.918 888 368C888 380.082 885.62 392.045 880.997 403.207C876.373 414.369 869.597 424.511 861.054 433.054C852.511 441.597 842.369 448.373 831.207 452.997C820.045 457.62 808.082 460 796 460C783.918 460 771.955 457.62 760.793 452.997C749.631 448.373 739.489 441.597 730.946 433.054C722.403 424.511 715.626 414.369 711.003 403.207C706.38 392.045 704 380.082 704 368C704 355.918 706.38 343.955 711.003 332.793C715.627 321.631 722.403 311.489 730.946 302.946C739.489 294.403 749.631 287.626 760.793 283.003C771.955 278.38 783.918 276 796 276L796 276Z" stroke="#F2F4F7" stroke-width="16" stroke-linecap="round" stroke-linejoin="round"/>
<path d="M796 276C814.791 276 833.132 281.754 848.556 292.489C863.979 303.224 875.746 318.424 882.272 336.046C888.799 353.668 889.773 372.865 885.064 391.057C880.354 409.249 870.187 425.562 855.929 437.803C841.672 450.044 824.008 457.625 805.313 459.527C786.618 461.43 767.789 457.561 751.358 448.443C734.927 439.325 721.682 425.393 713.405 408.523C705.128 391.653 702.216 372.652 705.06 354.077" stroke="#7F56D9" stroke-width="16" stroke-linecap="round" stroke-linejoin="round"/>
<path d="M796 296C805.455 296 814.818 297.862 823.553 301.481C832.289 305.099 840.226 310.402 846.912 317.088C853.598 323.774 858.901 331.711 862.519 340.447C866.138 349.182 868 358.545 868 368C868 377.455 866.138 386.818 862.519 395.553C858.901 404.289 853.597 412.226 846.912 418.912C840.226 425.598 832.289 430.901 823.553 434.519C814.818 438.138 805.455 440 796 440C786.545 440 777.182 438.138 768.447 434.519C759.711 430.901 751.774 425.597 745.088 418.912C738.402 412.226 733.099 404.289 729.481 395.553C725.862 386.818 724 377.455 724 368C724 358.545 725.862 349.182 729.481 340.447C733.099 331.711 738.403 323.774 745.088 317.088C751.774 310.402 759.711 305.099 768.447 301.481C777.182 297.862 786.545 296 796 296L796 296Z" stroke="#F2F4F7" stroke-width="16" stroke-linecap="round" stroke-linejoin="round"/>
<path d="M796 296C808.526 296 820.835 299.268 831.712 305.481C842.588 311.694 851.656 320.636 858.019 331.426C864.382 342.216 867.82 354.478 867.993 367.003C868.167 379.528 865.069 391.881 859.008 402.843C852.946 413.805 844.129 422.995 833.429 429.507C822.729 436.018 810.514 439.626 797.993 439.972C785.472 440.319 773.077 437.393 762.033 431.484C750.988 425.575 741.676 416.886 735.017 406.277" stroke="#B692F6" stroke-width="16" stroke-linecap="round" stroke-linejoin="round"/>
<path d="M756.56 352H754.929L758.593 341.818H760.368L764.032 352H762.401L759.523 343.668H759.443L756.56 352ZM756.833 348.013H762.123V349.305H756.833V348.013ZM768.477 352.154C767.738 352.154 767.101 351.987 766.568 351.652C766.037 351.314 765.63 350.848 765.345 350.255C765.06 349.662 764.917 348.982 764.917 348.217C764.917 347.441 765.063 346.757 765.354 346.163C765.646 345.567 766.057 345.101 766.587 344.766C767.118 344.432 767.743 344.264 768.462 344.264C769.042 344.264 769.559 344.372 770.013 344.587C770.467 344.799 770.833 345.098 771.112 345.482C771.393 345.867 771.561 346.316 771.614 346.83H770.167C770.087 346.472 769.905 346.163 769.62 345.905C769.338 345.646 768.961 345.517 768.487 345.517C768.072 345.517 767.709 345.626 767.398 345.845C767.09 346.061 766.849 346.369 766.677 346.77C766.505 347.168 766.418 347.638 766.418 348.182C766.418 348.739 766.503 349.219 766.672 349.624C766.841 350.028 767.08 350.341 767.388 350.563C767.699 350.785 768.066 350.896 768.487 350.896C768.768 350.896 769.024 350.845 769.252 350.742C769.484 350.636 769.678 350.485 769.834 350.29C769.993 350.094 770.104 349.859 770.167 349.584H771.614C771.561 350.078 771.4 350.518 771.131 350.906C770.863 351.294 770.503 351.599 770.053 351.821C769.605 352.043 769.08 352.154 768.477 352.154ZM776.768 344.364V345.557H772.597V344.364H776.768ZM773.715 342.534H775.202V349.758C775.202 350.046 775.245 350.263 775.331 350.409C775.417 350.552 775.528 350.649 775.664 350.702C775.804 350.752 775.954 350.777 776.117 350.777C776.236 350.777 776.34 350.769 776.43 350.752C776.519 350.736 776.589 350.722 776.639 350.712L776.907 351.94C776.821 351.973 776.698 352.007 776.539 352.04C776.38 352.076 776.181 352.096 775.943 352.099C775.552 352.106 775.187 352.036 774.849 351.891C774.511 351.745 774.237 351.519 774.029 351.214C773.82 350.91 773.715 350.527 773.715 350.066V342.534ZM778.412 352V344.364H779.899V352H778.412ZM779.163 343.185C778.905 343.185 778.682 343.099 778.497 342.927C778.315 342.751 778.223 342.542 778.223 342.3C778.223 342.055 778.315 341.846 778.497 341.674C778.682 341.498 778.905 341.411 779.163 341.411C779.422 341.411 779.642 341.498 779.824 341.674C780.01 341.846 780.103 342.055 780.103 342.3C780.103 342.542 780.01 342.751 779.824 342.927C779.642 343.099 779.422 343.185 779.163 343.185ZM788.431 344.364L785.662 352H784.071L781.297 344.364H782.893L784.827 350.24H784.907L786.835 344.364H788.431ZM792.86 352.154C792.107 352.154 791.459 351.993 790.916 351.672C790.376 351.347 789.958 350.891 789.663 350.305C789.371 349.715 789.226 349.024 789.226 348.232C789.226 347.449 789.371 346.76 789.663 346.163C789.958 345.567 790.369 345.101 790.896 344.766C791.426 344.432 792.046 344.264 792.755 344.264C793.186 344.264 793.604 344.335 794.008 344.478C794.413 344.621 794.776 344.844 795.097 345.149C795.419 345.454 795.672 345.85 795.858 346.337C796.043 346.821 796.136 347.41 796.136 348.102V348.629H790.066V347.516H794.679C794.679 347.125 794.6 346.778 794.441 346.477C794.282 346.172 794.058 345.931 793.77 345.756C793.485 345.58 793.15 345.492 792.765 345.492C792.348 345.492 791.983 345.595 791.672 345.8C791.363 346.003 791.125 346.268 790.956 346.596C790.79 346.921 790.707 347.274 790.707 347.655V348.525C790.707 349.035 790.797 349.469 790.976 349.827C791.158 350.185 791.411 350.459 791.736 350.648C792.061 350.833 792.441 350.926 792.875 350.926C793.156 350.926 793.413 350.886 793.645 350.807C793.877 350.724 794.078 350.601 794.247 350.439C794.416 350.277 794.545 350.076 794.635 349.837L796.042 350.091C795.929 350.505 795.727 350.868 795.435 351.18C795.147 351.488 794.784 351.728 794.346 351.901C793.912 352.07 793.417 352.154 792.86 352.154ZM806.328 348.833V344.364H807.819V352H806.358V350.678H806.278C806.102 351.085 805.821 351.425 805.433 351.697C805.049 351.965 804.57 352.099 803.996 352.099C803.506 352.099 803.071 351.992 802.694 351.776C802.319 351.558 802.024 351.234 801.809 350.807C801.597 350.379 801.491 349.851 801.491 349.221V344.364H802.977V349.042C802.977 349.562 803.121 349.977 803.41 350.285C803.698 350.593 804.072 350.747 804.533 350.747C804.812 350.747 805.088 350.678 805.363 350.538C805.642 350.399 805.872 350.189 806.054 349.907C806.24 349.625 806.331 349.267 806.328 348.833ZM815.539 346.228L814.192 346.467C814.135 346.294 814.046 346.13 813.923 345.974C813.804 345.819 813.641 345.691 813.436 345.592C813.23 345.492 812.974 345.442 812.665 345.442C812.244 345.442 811.893 345.537 811.611 345.726C811.33 345.911 811.189 346.152 811.189 346.447C811.189 346.702 811.283 346.907 811.472 347.063C811.661 347.219 811.966 347.347 812.387 347.446L813.6 347.724C814.303 347.887 814.826 348.137 815.171 348.475C815.516 348.813 815.688 349.252 815.688 349.793C815.688 350.25 815.556 350.658 815.29 351.016C815.029 351.37 814.662 351.649 814.192 351.851C813.724 352.053 813.182 352.154 812.566 352.154C811.711 352.154 811.013 351.972 810.473 351.607C809.933 351.239 809.601 350.717 809.479 350.041L810.915 349.822C811.005 350.197 811.189 350.48 811.467 350.673C811.746 350.862 812.109 350.956 812.556 350.956C813.043 350.956 813.433 350.855 813.724 350.653C814.016 350.447 814.162 350.197 814.162 349.902C814.162 349.663 814.072 349.463 813.893 349.3C813.718 349.138 813.448 349.015 813.083 348.933L811.79 348.649C811.078 348.487 810.551 348.228 810.209 347.874C809.871 347.519 809.702 347.07 809.702 346.526C809.702 346.076 809.828 345.681 810.08 345.343C810.332 345.005 810.68 344.741 811.124 344.553C811.568 344.36 812.077 344.264 812.65 344.264C813.476 344.264 814.125 344.443 814.599 344.801C815.073 345.156 815.387 345.631 815.539 346.228ZM820.614 352.154C819.861 352.154 819.213 351.993 818.67 351.672C818.13 351.347 817.712 350.891 817.417 350.305C817.125 349.715 816.979 349.024 816.979 348.232C816.979 347.449 817.125 346.76 817.417 346.163C817.712 345.567 818.123 345.101 818.65 344.766C819.18 344.432 819.8 344.264 820.509 344.264C820.94 344.264 821.358 344.335 821.762 344.478C822.167 344.621 822.529 344.844 822.851 345.149C823.172 345.454 823.426 345.85 823.612 346.337C823.797 346.821 823.89 347.41 823.89 348.102V348.629H817.82V347.516H822.433C822.433 347.125 822.354 346.778 822.195 346.477C822.036 346.172 821.812 345.931 821.524 345.756C821.238 345.58 820.904 345.492 820.519 345.492C820.102 345.492 819.737 345.595 819.426 345.8C819.117 346.003 818.879 346.268 818.71 346.596C818.544 346.921 818.461 347.274 818.461 347.655V348.525C818.461 349.035 818.551 349.469 818.729 349.827C818.912 350.185 819.165 350.459 819.49 350.648C819.815 350.833 820.194 350.926 820.629 350.926C820.91 350.926 821.167 350.886 821.399 350.807C821.631 350.724 821.832 350.601 822.001 350.439C822.17 350.277 822.299 350.076 822.389 349.837L823.796 350.091C823.683 350.505 823.481 350.868 823.189 351.18C822.901 351.488 822.538 351.728 822.1 351.901C821.666 352.07 821.171 352.154 820.614 352.154ZM825.539 352V344.364H826.976V345.577H827.056C827.195 345.166 827.44 344.843 827.791 344.607C828.146 344.369 828.547 344.249 828.995 344.249C829.087 344.249 829.197 344.253 829.323 344.259C829.452 344.266 829.553 344.274 829.626 344.284V345.706C829.566 345.689 829.46 345.671 829.308 345.651C829.155 345.628 829.003 345.616 828.85 345.616C828.499 345.616 828.186 345.691 827.911 345.84C827.639 345.986 827.424 346.19 827.264 346.452C827.105 346.71 827.026 347.005 827.026 347.337V352H825.539ZM836.635 346.228L835.287 346.467C835.231 346.294 835.142 346.13 835.019 345.974C834.9 345.819 834.737 345.691 834.532 345.592C834.326 345.492 834.069 345.442 833.761 345.442C833.34 345.442 832.989 345.537 832.707 345.726C832.425 345.911 832.285 346.152 832.285 346.447C832.285 346.702 832.379 346.907 832.568 347.063C832.757 347.219 833.062 347.347 833.483 347.446L834.696 347.724C835.398 347.887 835.922 348.137 836.267 348.475C836.611 348.813 836.784 349.252 836.784 349.793C836.784 350.25 836.651 350.658 836.386 351.016C836.124 351.37 835.758 351.649 835.287 351.851C834.82 352.053 834.278 352.154 833.662 352.154C832.807 352.154 832.109 351.972 831.569 351.607C831.028 351.239 830.697 350.717 830.574 350.041L832.011 349.822C832.101 350.197 832.285 350.48 832.563 350.673C832.841 350.862 833.204 350.956 833.652 350.956C834.139 350.956 834.528 350.855 834.82 350.653C835.112 350.447 835.258 350.197 835.258 349.902C835.258 349.663 835.168 349.463 834.989 349.3C834.813 349.138 834.543 349.015 834.179 348.933L832.886 348.649C832.174 348.487 831.647 348.228 831.305 347.874C830.967 347.519 830.798 347.07 830.798 346.526C830.798 346.076 830.924 345.681 831.176 345.343C831.428 345.005 831.776 344.741 832.22 344.553C832.664 344.36 833.173 344.264 833.746 344.264C834.571 344.264 835.221 344.443 835.695 344.801C836.169 345.156 836.482 345.631 836.635 346.228Z" fill="#475467"/>
<path d="M766.193 367.182V389H762.241V371.028H762.113L757.01 374.288V370.665L762.432 367.182H766.193ZM775.102 386.017L774.964 387.189C774.864 388.084 774.687 388.993 774.431 389.916C774.182 390.847 773.919 391.702 773.642 392.484C773.366 393.265 773.142 393.879 772.971 394.327H770.372C770.471 393.893 770.606 393.304 770.777 392.558C770.954 391.813 771.125 390.974 771.288 390.044C771.451 389.114 771.562 388.169 771.618 387.21L771.693 386.017H775.102ZM786.594 389.415C784.84 389.415 783.334 388.972 782.077 388.084C780.827 387.189 779.865 385.9 779.19 384.217C778.523 382.526 778.189 380.491 778.189 378.112C778.196 375.733 778.533 373.709 779.201 372.04C779.876 370.364 780.838 369.085 782.088 368.205C783.345 367.324 784.847 366.884 786.594 366.884C788.342 366.884 789.844 367.324 791.101 368.205C792.358 369.085 793.32 370.364 793.988 372.04C794.663 373.716 795 375.74 795 378.112C795 380.499 794.663 382.537 793.988 384.227C793.32 385.911 792.358 387.196 791.101 388.084C789.851 388.972 788.349 389.415 786.594 389.415ZM786.594 386.081C787.958 386.081 789.034 385.41 789.822 384.067C790.618 382.718 791.016 380.733 791.016 378.112C791.016 376.379 790.834 374.923 790.472 373.744C790.11 372.565 789.599 371.678 788.938 371.081C788.278 370.477 787.496 370.175 786.594 370.175C785.238 370.175 784.165 370.85 783.377 372.2C782.589 373.542 782.191 375.513 782.184 378.112C782.177 379.852 782.351 381.315 782.706 382.501C783.068 383.687 783.579 384.582 784.24 385.186C784.9 385.783 785.685 386.081 786.594 386.081ZM806.604 389.415C804.85 389.415 803.344 388.972 802.087 388.084C800.837 387.189 799.875 385.9 799.2 384.217C798.532 382.526 798.199 380.491 798.199 378.112C798.206 375.733 798.543 373.709 799.211 372.04C799.885 370.364 800.848 369.085 802.098 368.205C803.355 367.324 804.857 366.884 806.604 366.884C808.351 366.884 809.853 367.324 811.111 368.205C812.368 369.085 813.33 370.364 813.998 372.04C814.672 373.716 815.01 375.74 815.01 378.112C815.01 380.499 814.672 382.537 813.998 384.227C813.33 385.911 812.368 387.196 811.111 388.084C809.861 388.972 808.358 389.415 806.604 389.415ZM806.604 386.081C807.968 386.081 809.044 385.41 809.832 384.067C810.628 382.718 811.025 380.733 811.025 378.112C811.025 376.379 810.844 374.923 810.482 373.744C810.12 372.565 809.608 371.678 808.948 371.081C808.287 370.477 807.506 370.175 806.604 370.175C805.248 370.175 804.175 370.85 803.387 372.2C802.598 373.542 802.201 375.513 802.194 378.112C802.187 379.852 802.361 381.315 802.716 382.501C803.078 383.687 803.589 384.582 804.25 385.186C804.91 385.783 805.695 386.081 806.604 386.081ZM826.614 389.415C824.86 389.415 823.354 388.972 822.097 388.084C820.847 387.189 819.884 385.9 819.21 384.217C818.542 382.526 818.208 380.491 818.208 378.112C818.215 375.733 818.553 373.709 819.22 372.04C819.895 370.364 820.858 369.085 822.108 368.205C823.365 367.324 824.867 366.884 826.614 366.884C828.361 366.884 829.863 367.324 831.12 368.205C832.377 369.085 833.34 370.364 834.007 372.04C834.682 373.716 835.019 375.74 835.019 378.112C835.019 380.499 834.682 382.537 834.007 384.227C833.34 385.911 832.377 387.196 831.12 388.084C829.87 388.972 828.368 389.415 826.614 389.415ZM826.614 386.081C827.978 386.081 829.054 385.41 829.842 384.067C830.637 382.718 831.035 380.733 831.035 378.112C831.035 376.379 830.854 374.923 830.492 373.744C830.13 372.565 829.618 371.678 828.958 371.081C828.297 370.477 827.516 370.175 826.614 370.175C825.257 370.175 824.185 370.85 823.397 372.2C822.608 373.542 822.21 375.513 822.203 378.112C822.196 379.852 822.37 381.315 822.725 382.501C823.088 383.687 823.599 384.582 824.259 385.186C824.92 385.783 825.705 386.081 826.614 386.081Z" fill="#101828"/>
<defs>
<filter id="filter0_d_1_3862" x="0" y="0" width="872" height="532" filterUnits="userSpaceOnUse" color-interpolation-filters="sRGB">
<feFlood flood-opacity="0" result="BackgroundImageFix"/>
<feColorMatrix in="SourceAlpha" type="matrix" values="0 0 0 0 0 0 0 0 0 0 0 0 0 0 0 0 0 0 127 0" result="hardAlpha"/>
<feMorphology radius="12" operator="erode" in="SourceAlpha" result="effect1_dropShadow_1_3862"/>
<feOffset dy="24"/>
<feGaussianBlur stdDeviation="24"/>
<feComposite in2="hardAlpha" operator="out"/>
<feColorMatrix type="matrix" values="0 0 0 0 0.0625882 0 0 0 0 0.0926346 0 0 0 0 0.15702 0 0 0 0.18 0"/>
<feBlend mode="normal" in2="BackgroundImageFix" result="effect1_dropShadow_1_3862"/>
<feBlend mode="normal" in="SourceGraphic" in2="effect1_dropShadow_1_3862" result="shape"/>
</filter>
<linearGradient id="paint0_linear_1_3862" x1="368" y1="0" x2="368" y2="294" gradientUnits="userSpaceOnUse">
<stop/>
<stop offset="1" stop-opacity="0"/>
</linearGradient>
</defs>
</svg>
